<?xml version="1.0" encoding="UTF-8"?>
<svg id="Layer_1" data-name="Layer 1" xmlns="http://www.w3.org/2000/svg" width="318.51" height="277.2" viewBox="0 0 318.51 277.2">
  <defs>
    <style>
      .cls-1 {
        fill: #651c17;
        isolation: isolate;
        opacity: .3;
        stroke-width: 0px;
      }
    </style>
  </defs>
  <path class="cls-1" d="m216.53,4.06c-.25,2.36-.46,4.43-1,6.76-.85,5.28-2.32,10.8-3.76,16.02-2.24,7.23-4.19,14.48-4.99,22.16-.52,5.02-.46,10.1.82,15,.78,3.96,2.5,7.42,4.85,10.65,3.14,4.21,6.63,7.85,8.82,12.56,2.42,5.32,3.31,11.09,3.02,16.72-.35,6.23-2.18,12.31-6.24,16.95-.68.82-1.33,1.35-1.72,2.21-1.04,1.38-2.4,3.03-3.44,4.41-2.11,3.06-4.21,6.12-6.35,9.48-2.11,3.06-3.95,6.45-5.79,9.84-1.07,1.68-1.84,3.39-2.88,4.77-1.04,1.38-1.81,3.09-2.56,4.51-.74,1.41-2.01,2.18-3.05,3.56-1.04,1.38-2.08,2.77-2.82,4.18-.36.56-.39.85-.74,1.42.03-.3.12-1.18.15-1.48.06-.59.12-1.18.15-1.48.12-1.18.22-2.07.63-3.22.57-2.63,1.14-5.25,1.68-7.58,9.32-15.14,21.21-37.77,6.19-53.66-2.14-2.31-4.08-3.71-4.01-7.28-.05-2.39-.16-4.19-1.15-6.09-1.72-3.46-4.75-5.87-7.8-7.97-4.44-3.15-9.55-5.47-14.38-7.77-2.85-1.19-5.41-2.35-8.3-3.25-1.44-.45-2.88-.9-4.33-1.35-1.15-.42-2.33-.54-3.18-.93,2.02,3.49,4.39,6.43,6.09,10.18,1.69,3.76,3.39,7.51,4.16,11.47,2.58,9.52,1.92,18.7,1.2,28.47-.47,7.41-.42,15.47,4,21.6,1.55,2.25,4.08,3.71,6.61,5.17s5.35,2.94,7.82,4.99c2.2,1.72,3.76,3.97,4.07,6.69.11,1.8-.69,3.81-.88,5.58-.51,2.04-.73,4.1-.94,6.17l-.03.29c-.12,1.18-.25,2.36-.4,3.84-.09.89-.15,1.48-.25,2.36-.09.89-.18,1.77-.57,2.62-.39.86-.74,1.42-1.13,2.27-.74,1.42-1.78,2.8-2.79,3.89s-1.98,1.88-2.99,2.97c-5.27,4.82-9.42,10.36-12.16,16.63-1.87,3.68-2.66,8.38-5.36,11.38-1.69,1.91-3.94,3.47-5.62,5.38.62-5.9.67-12.16-.22-17.93-.34-2.42-.98-4.88-1.65-7.03-.23-.62-.44-1.54-.67-2.16-.73-1.57-2.44-2.34-3.82-3.38-1.09-1.01-2.47-2.05-3.52-3.35-1.06-1.3-1.43-3.43-1.83-5.26-1.6-4.64-2.91-9.25-4.51-13.9,1.86-6.37,3.42-12.77,4.71-19.5,1.17-5.55,2.38-11.39,2.08-17.09-.16-4.19-1.2-8.48-4.16-11.47-4.02-4.3-9.97-4.32-13.63-9.18-2.84-4.18-3.82-9.05-6.69-12.93-2.58-3.85-6.49-6.35-10.78-7.99-5.74-2.09-12.25-2.47-18.11-3.38-4.12-.43-8.22-1.16-12.34-1.59-2.65-.28-5.01-.52-7.63-1.09,8.81,6.89,18.57,13.27,22.17,24.39,2.67,8.63,4.11,17.73,13.26,21.37,5.15,2.03,9.38,4.26,13.14,8.23,3.75,3.97,6.53,8.74,8.69,13.74,1.2,2.81,2.66,5.95,3.56,8.73.44,1.54,1.17,3.11,1.6,4.64.7,1.86,1.1,3.7,1.8,5.56.26.33.2.92.44,1.54.47,1.24.93,2.48,1.1,3.7.47,1.24.93,2.48,1.1,3.69.23.62.47,1.24.7,1.86.26.33.14,1.51.7,1.86-5.17-4.72-9.98-9.99-14.79-15.27-1.06-1.3-2.17-2.02-3.55-3.05-8.38-11.02-23.89-22.18-35.72-25.81-5.47-1.76-12.16-3.36-18.14-3.09-6.6.51-7.75,5.76-12.04,9.78-7.58,6.97-20.32,3.55-29.13,8-5.35,2.72-9.11,7.4-12.58,12.11-5.13,6.33-9.46,13.63-14.33,20.29-.71,1.12-.45,1.44.79.98,13.23-6.97,28.86-8.33,43.25-3.54,6.62,2.18,13.38,5.87,20.87,5.46,5.69-.3,10.18-3.41,14.15-7.18,10.21-9.38,23.27-23.23,38.65-16.56,6.53,3.07,11.09,10.71,15.93,15.68,2.41,2.64,4.81,5.28,7.54,7.65,1.35,1.33,2.44,2.34,3.79,3.68.82.68,1.38,1.04,2.2,1.72.56.36,1.41.74,1.94,1.4.26.33.5.95.73,1.57,1.17,3.1,2.04,6.18,2.26,9.78.28,3.01.24,6.29-.07,9.24-.14,4.16-1.16,8.23-2.18,12.31-.51,2.03-1.02,4.07-1.53,6.11-.99,3.78-3.06,6.54-5.2,9.9-3.24,5.33-3.62,11.86-4.23,17.76-.44,7.12-.86,13.93-1.3,21.05,1.21-.17,2.12-.38,3.33-.55.35-6.23.7-12.46,1.06-18.69.38-6.52.83-13.64,4.42-19.53,3.17-4.74,8.41-9.27,13.2-12.35,1.92-1.29,3.55-2.61,5.44-3.61.29.03.33-.27.62-.23,1.3-1.06,2.31-2.15,3.58-2.91,1.3-1.06,2.57-1.82,3.84-2.58,2.84-1.49,5.67-2.99,8.77-4.16,6.2-2.34,12.57-3.46,18.88-4,1.21-.17,2.42-.34,3.89-.19,6.87-.18,14.2.89,20.41,4.22,5.91,3.3,9.8,8.78,15.36,12.64,3.88,2.79,9.03,4.82,13.96,3.25,5.52-1.51,9.58-6.16,14.6-8.62,5.38-3.02,11.52-4.77,17.56-5.63,3.33-.55,6.6-.51,9.88-.46,2.39-.05,4.74.2,7.4.47,1.18.12,1.24-.47.68-.82-.26-.33-.56-.36-.82-.68-4.5-2.56-8.7-5.08-12.58-7.88-3.88-2.79-7.72-5.88-11.28-8.93-8.58-6.27-17.34-10.76-28.19-9.51-3.3.25-6.37,1.13-9.64,1.08-4.48.13-7.89-1.42-11.89-3.03-5.15-2.03-10.57-1.4-15.86.73-5.61,2.4-10.17,6.1-15.05,10.07-4.23,3.44-8.46,6.88-12.69,10.31-.98.79-1.95,1.59-3.25,2.65-.68.82-1.63,1.32-2.28,1.85s-1.3,1.06-2.22,1.26c-.91.2-1.89,1-2.81,1.2-1.57.73-3.13,1.46-4.73,2.49-3.16,1.76-5.5,4.2-8.4,6.29-1.92,1.29-3.52,2.32-5.44,3.61s-4.17,2.85-5.8,4.17c.66-3.51,1.3-6.73,2.26-10.21,1.04-1.38,2.04-2.47,3.38-3.82,1.3-1.06,2.6-2.11,3.9-3.17,1.98-1.88,3.14-4.45,4.3-7.01,2.74-6.28,5.48-12.56,10.19-17.74,4.38-4.91,9.2-8.29,12.24-14.54,1.49-2.83,2.41-6.01,4.49-8.78,2.11-3.06,5.62-5.38,8.82-7.43,3.16-1.76,6.29-3.22,9.72-4.66,3.39-1.14,6.79-2.27,10.45-3.09,1.5-.14,2.95.31,4.42.46,1.44.45,3.21.63,4.65,1.08,3.18.93,6.03,2.12,8.85,3.61,4.79,2.59,8.9,6,13.7,8.59,6.73,3.99,15.71,6.41,22.75,1.78,3.52-2.32,5.1-6.03,7.5-9.07,2.08-2.77,4.26-3.73,7.33-4.61,1.54-.44,3.33-.55,4.63-1.61,4.11-2.26,6.46-7.68,9.51-11.24,2.04-2.47,6.46-7.68,10.57-9.94.32-.26.62-.23.94-.5.33-.26.65-.53.98-.79.33-.26.36-.56.68-.82l.32-.26c-.88-.09-1.47-.15-2.36-.25-6.84-.12-13.61-.82-20.36-1.83-3.5-.66-7.01-1.33-10.51-1.99-3.8-.69-7.54-1.98-11.16-1.46-2.12.38-3.98,1.08-5.75.89-1.77-.18-3.5-.66-5.27-.85-2.65-.28-5.36.04-8.14.94-6.14,1.75-11.31,5.68-15.64,10-5,5.15-9.69,13.01-16.75,14.96-6.43,1.72-12.83,3.14-19.13,6.36-1.56.73-3.46,1.73-5.05,2.76,6.83-11.22,13.42-23.07,21.9-32.92,4.42-5.21,9.39-10.06,14.07-14.94,2.01-2.18,4.03-4.35,6.04-6.53,11.44-1.19,23.12-1.77,34.32-3.58,8.17-1.24,8.66-11.63,12.81-17.16,2.79-3.89,7.65-4.87,10.15-8.79,2.4-3.03,3.13-7.13,3.53-10.97,1.16-8.23,2.02-16.5,3.17-24.73.37-3.54,1.36-7.32.85-10.95-.63,3.22-3.36,6.51-5.67,8.66-1.98,1.88-4.52,3.41-7.33,4.61s-5.61,2.4-8.45,3.89c-3.13,1.46-5.73,3.58-7.81,6.35-2.43,3.33-3.54,8.28-7.03,10.31-3.19,2.05-7.52.71-10.97,2.44-2.54,1.53-4.59,4-6.04,6.53-3.03,6.25-2.59,13.45-5.04,19.76-1.61,4.01-4.89,6.95-7.62,10.25-1.36,1.65-2.7,3-4.06,4.65-3.67,3.79-7.37,7.88-11.05,11.68,2-4.86,2.55-10.18,2.22-15.58l.03-.3c.21-2.07,1.87-3.68,2.94-5.36s2.43-3.33,3.76-4.68c2.4-3.03,5.13-6.33,6.15-10.4,2.37-8.41,1.94-18.6,1.06-27.34-.9-8.45-3.05-16.43-7.97-23.51-6.07-7.5-13.7-14.26-14.33-25.36.03-.3.06-.59-.2-.92-1.24.47-1.19,2.86-1.32,4.04l.03.02Zm-28.89,128.57c1.49-2.83,2.97-5.66,4.19-8.81.77-1.71,1.22-3.15,1.7-4.89s.63-3.22.52-5.02c.11,1.8-.34,3.25-.82,4.99-.48,1.74-1.22,3.15-1.67,4.6-1.16,2.57-2.65,5.39-4.07,7.63-.23-.62-.17-1.21-.4-1.83-.44-1.54-.58-3.04-1.31-4.61-.44-1.54-.87-3.07-1.6-4.64-.9-2.78-2.13-5.29-3.03-8.07.84-2.3,1.35-4.34,1.89-6.67.54-2.33,1.08-4.66,1.62-6.99s.79-4.69.74-7.08c.12-1.18-.05-2.39-.22-3.6s-.34-2.42-1.13-3.4c.5.95.67,2.16.84,3.37s.05,2.39-.07,3.57c-.25,2.36-.49,4.72-1.03,7.05-1.02,4.07-2.07,8.44-3.68,12.45-.87-3.07-1.74-6.15-2.02-9.16-.14-1.51.04-3.28-.1-4.78-.14-1.51-.25-3.31-.69-4.85-.58-3.04-1.71-6.44-2.91-9.25,1.49,2.84,2.36,5.92,2.91,9.25.14,1.51.58,3.04.39,4.81.14,1.51-.04,3.28.1,4.78.25,3.31.83,6.35,1.99,9.46.64,2.45,1.6,4.64,2.53,7.13l-9.59-5.18-2.8-7.45,2.47,7.72,10.08,6.12c-.03.29.23.62.2.92.44,1.54,1.17,3.1,1.31,4.61.44,1.54.87,3.07,1.01,4.58.98,4.88,1.78,11.52,2.43,16.66-2.58-3.85-7.4-6.14-11.34-8.34-10.38-6.15-10.06-17.76-8.95-28.38,1.6-15.35-1.05-29.95-8.62-42.97.19.02.38.14.56.36,4.85,2,9.44,3.67,13.97,5.93,4.82,2.29,9.91,4.91,13.67,8.88,2.17,2.02,3.4,4.53,3.39,7.51.11,1.8-.37,3.54.33,5.4.73,1.57,1.85,2.28,2.9,3.58,1.91,1.69,3.2,3.62,4.45,5.84,2.22,4.41,3.2,9.29,3,14.04-.23,10.72-5.69,20.29-11.39,29.25.63-3.22-.75-9.93-1.76-14.51h.01Zm-49.99-6.11l-3.05,9.23c-.9-2.78-1.8-5.56-2.73-8.04-1.46-3.14-3.21-6.3-5.65-8.64-.26-.33-.53-.65-.79-.98l-1.12-.71c-.85-.39-1.38-1.04-2.23-1.43s-1.68-1.07-2.53-1.46c.06-.59.12-1.18.18-1.77s.15-1.48-.08-2.1c.06-.59-.14-1.51-.37-2.13-.23-.62-.76-1.27-.99-1.89.53.65.76,1.27.99,1.89.23.62.17,1.21.37,2.13-.06.59-.15,1.48-.22,2.07-.06.59-.09.89-.45,1.44-.26-.33-.85-.39-1.12-.71-1.38-1.04-2.76-2.08-3.85-3.09-.82-.68-1.32-1.63-2.14-2.31-.58-3.04-1.09-6.68-1.67-9.72-.44-1.54-.58-3.04-1.01-4.58-.23-.62-.44-1.54-.67-2.16-.26-.33-.23-.62-.47-1.24-.26-.33-.23-.62-.5-.95.26.33.53.65.5.95.26.33.23.62.47,1.24.23.62.44,1.54.67,2.16.44,1.54.58,3.04.72,4.55.31,2.72.62,5.44.94,8.15-1.79-2.87-3.24-6.01-5.03-8.88-1.02-1.6-1.79-2.87-3.14-4.21-1.06-1.3-2.44-2.34-3.85-3.09,1.41.74,2.76,2.08,3.82,3.38,1.06,1.3,2.11,2.61,2.84,4.18,1.79,2.87,3.24,6.01,5.03,8.88.79.98,1.55,2.25,2.34,3.23-1.21.17-2.42.35-3.6.22-1.47-.15-2.95-.31-4.06-1.02,1.12.71,2.56,1.16,4.03,1.32.59.06,1.47.15,2.06.22.59.06,1.47.15,2.09-.08l.26.33c1.06,1.3,2.44,2.34,4.11,3.41,1.38,1.04,2.79,1.78,4.17,2.82.85.39,1.38,1.04,1.94,1.4l.82.68c.26.33.53.65.79.98,1.06,1.3,2.11,2.61,3.17,3.91l-6.78-.71-5.38-2.65,5.35,2.94,7.33,1.06c.76,1.27,1.23,2.51,1.69,3.76,1.46,3.14,2.3,6.5,3.17,9.58.84,3.37,1.38,6.71,1.64,10.02.11,1.8.39,4.81.44,7.21-1.37-4.02-3.06-7.78-4.75-11.54-4.41-9.11-10.42-17.2-20.12-21.19-2.85-1.19-5.74-2.09-8.17-4.43-2.14-2.31-3.04-5.09-3.94-7.87-1.6-4.64-2.55-9.81-4.77-14.22-3.21-6.3-8.32-11.61-14.52-14.94,8.84.92,17.68,1.84,26.36,4.24,5.8,1.5,10.59,4.09,13.93,9.21,2.28,3.82,3.62,8.13,5.93,11.66,2.31,3.52,5.43,5.04,9.11,6.92,5.97,2.71,7.87,7.38,7.81,13.64.19,9.57-2.36,19.74-5.11,29.01-.31-2.72-.56-6.03-.97-7.86-.55-3.34-1.09-6.68-1.93-10.05l.03-.29,3.17-10.41-3.53-9.02,3,8.37.02-.02Zm-74.42,19.69c1.77.18,3.21.63,4.95,1.11s3.18.93,4.92,1.41c1.44.45,3.15,1.22,4.85,2-3.89.19-7.52.71-11.18,1.52l-6.37,1.12-1.21.17-4.9,1.28-3.07.87c-.91.2-2.15.67-3.07.87l-6.17,2.04c-.62.23-.91.2-1.53.44l-.62.23c-3.3.25-7.22.74-10.53.99-1.8.11-3.33.55-5.13.66-2.39.05-4.22.46-5.75.89,1.53-.44,3.36-.84,5.16-.95s3.33-.55,5.13-.66c3.01-.28,5.72-.6,8.7-.59l-1.86.7-5.91,2.37-11.87,5.33,11.84-5.03,5.87-2.07,3.1-1.17,1.53-.44c.62-.23.91-.2,1.53-.44l6.14-1.75c.91-.2,2.15-.67,3.07-.87l3.07-.87,4.28-1.05c-1.69,1.91-3.41,4.12-4.83,6.36-1.04,1.38-1.75,2.5-2.49,3.92.74-1.42,1.75-2.5,2.49-3.92,1.75-2.5,3.76-4.68,6.07-6.83l.91-.2,6.37-1.13c7.25-1.03,14.45-1.48,21.87-1.3-1.3,1.06-2.63,2.41-3.64,3.5-1.66,1.62-3.02,3.26-4.41,5.21-1.39,1.94-2.49,3.92-3.59,5.89-.8,2.01-1.64,4.31-1.89,6.67.25-2.36,1.05-4.37,2.15-6.34s2.2-3.95,3.56-5.6c1.36-1.65,3.05-3.56,4.68-4.88,1.33-1.35,2.96-2.68,4.59-4,.88.09,1.77.18,2.65.28,4.12.43,8.54.89,12.64,1.62,2.62.57,5.24,1.14,7.83,2.01-4.71-.49-9.58.49-13.95,2.42-4.7,2.2-8.57,5.07-12.5,8.54-4.26,3.73-8.06,8.71-13.11,11.46-11.76,7.13-25.27-3.23-37-5.05-11.43-1.79-22.31-.24-31.97,3.83,3.44-4.42,6.91-9.13,10.64-13.51,3.44-4.41,6.97-9.72,12.05-12.77,8.57-5.07,18.99-2.2,27.5-6.68,1.57-.73,2.87-1.79,4.2-3.14,2.01-2.18,3.24-5.33,5.81-7.15,4.82-3.38,14.33-.3,19.54,1.14,10.98,3.23,22.64,11.31,31.01,19.64-3.47-.96-7.54-1.98-10.45-2.58-4.39-.76-8.51-1.19-12.93-1.65-4.16-.13-8.31-.27-12.53.18-1.71-.77-4.85-2-6.59-2.48-1.74-.48-3.18-.93-4.92-1.41-1.47-.15-3.24-.34-4.74-.2-1.74-.48-3.24-.34-5.07.07,1.53-.44,3.3-.25,5.07-.07v.04Zm134.41,56.09c-1.86.7-4.96,1.87-7.79,3.36,3.25-2.64,6.51-5.29,10.09-8.2,4.88-3.97,10.09-8.2,15.99-10.57,3.1-1.17,6.46-2.01,9.67-1.38s6,2.42,9.18,3.34c6.06,1.83,12.2.08,18.22-.49,18.34-1.67,29.47,14.41,44.37,22.83-8.57-.6-17.36.88-25.16,4.24-2.8,1.2-5.64,2.69-8.18,4.22-2.87,1.79-5.53,4.5-8.96,5.93-8.06,3.04-15.04-4.25-20.47-9.29-9.48-9.04-21.4-11.78-34.35-10.45-2.71.31-5.75.89-8.5,1.5,2.51-1.23,5.05-2.76,6.62-3.49,4.04-1.67,8.06-3.04,12.04-4.12l.29.03c2.92.6,6.16.94,9.04,1.84,1.74.48,3.18.93,4.62,1.38-1.41-.74-3.15-1.22-4.59-1.67-2.59-.87-4.92-1.41-7.54-1.98,1.53-.44,2.74-.61,4.25-.75,2.12-.38,4.22-.46,6.31-.54,2.09-.08,4.16.14,6.19.65s4.03,1.32,5.68,2.68c2.73,2.37,6.44,3.95,9.91,4.91,1.38,1.04,2.76,2.08,4.17,2.82s2.85,1.19,4.3,1.64c1.44.45,2.88.9,4.65,1.08.88.09,1.47.15,2.36.25-.88-.09-1.47-.15-2.33-.54-1.44-.45-2.88-.9-4.33-1.35-1.44-.45-2.85-1.19-4.26-1.94-1.12-.71-1.97-1.1-3.09-1.81l.29.03c2.06.21,4.45.16,6.31-.54,2.15-.67,4.04-1.67,5.94-2.66,1.89-1,4.04-1.67,6.14-1.75,2.09-.08,4.15.13,6.19.65,4.06,1.02,8.03,2.93,11.35,5.36-3.32-2.44-7.26-4.64-11.32-5.66-2.03-.51-4.06-1.02-6.45-.97-.88-.09-1.5.14-2.12.38.33-.27.65-.53.98-.79.65-.53,1.27-.76,1.92-1.29.65-.53,1.27-.76,1.89-1,.62-.23,1.53-.44,2.12-.38-.88-.09-1.5.14-2.12.38-.62.23-1.54.44-2.15.67-.62.23-1.27.76-1.92,1.29-.65.53-1.63,1.32-1.98,1.88-.92.2-1.57.73-2.48.93-1.89,1-3.78,1.99-5.9,2.37-2.15.67-4.22.46-6.28.24-4.09-.73-8.1-2.34-11.38-5.07-1.64-1.37-3.61-2.47-5.94-3.01-.85-.39-2.03-.51-2.91-.6,3.1-1.17,6.46-2.01,9.83-2.85,1.83-.41,3.95-.78,6.08-1.16,2.12-.38,3.92-.49,5.95.02-2.03-.51-4.12-.43-5.95-.02-2.09.08-3.92.49-6.05.86-3.95.78-7.64,1.89-11.33,3-.59-.06-1.18-.12-1.77-.18-2.09.08-4.19.16-6.6.51-2.12.38-4.25.75-6.37,1.13-4.28,1.05-8.29,2.42-12.34,4.08l-.03.02Zm36.26-62.16c4.74-5.47,9.77-10.92,16.39-14.4,3.13-1.46,6.53-2.6,9.83-2.85,3.6-.22,7.01,1.33,10.67.52,4.54-.72,8.11-.65,12.46.4,4.06,1.02,8.45,1.78,12.54,2.5,5.27.85,10.57,1.4,16.2,1.69-.33.26-.62.23-.65.53-3.9,3.17-7.28,7-10.66,10.82-1.72,2.21-3.14,4.45-4.83,6.36-2.4,3.03-5.08,3.05-8.15,3.92-3.98,1.08-6.06,3.84-8.2,7.2-3.2,5.04-6.52,8.27-12.77,8.22-5.95-.02-11.04-2.64-15.8-5.53-7.55-4.67-14.25-8.95-22.64-11.31,5.69-.3,11.71-.87,17.13-1.5.91-.2,1.5-.14,2.42-.34,1.94,1.4,4.17,2.82,6.11,4.22,1.12.71,1.91,1.69,3.02,2.4,1.09,1.01,1.88,1.99,2.67,2.96-.47-1.24-1.55-2.25-2.34-3.23s-1.88-1.99-2.99-2.7c-1.64-1.36-3.29-2.73-5.23-4.13,2.12-.38,4.25-.75,6.37-1.12,1.53-.44,3.33-.55,4.9-1.28.32-.26.95-.5,1.27-.76l.32-.26.32-.26.36-.56c.36-.56,1.01-1.09,1.66-1.62,1.3-1.06,2.87-1.79,4.14-2.55.91-.2,1.57-.73,2.48-.93,3.44,1.25,6.62,2.18,10.1,3.14,1.74.48,3.47.96,5.24,1.14-1.74-.48-3.47-.96-5.21-1.44-3.18-.93-6.03-2.12-9.18-3.34.32-.26.62-.23,1.24-.47,3.07-.87,6.43-1.72,9.47-2.29,3.33-.55,6.4-1.42,9.7-1.67,1.5-.14,3.33-.55,4.81-.39.88.09,1.8-.11,2.39-.05s1.47.15,2.06.21c-.56-.36-1.44-.45-2.03-.51-.88-.09-1.77-.18-2.39.05-1.8.11-3.3.25-4.81.39-3.3.25-6.67,1.1-9.7,1.67-.62.23-1.5.14-2.12.38.71-1.12,1.43-2.24,2.43-3.33.65-.53,1.01-1.09,1.66-1.62-.65.53-1.3,1.06-1.95,1.59-1.01,1.09-2.34,2.44-3.38,3.82-2.12.38-4.28,1.05-6.4,1.42-1.53.44-3.1,1.17-4.66,1.9-1.57.73-3.13,1.46-4.43,2.52-.65.53-1.3,1.06-1.95,1.59l-.65.53-.03.29-.03.29c-.32.26-.65.53-.95.5-1.56.73-3.07.87-4.6,1.31-.91.2-1.5.14-2.42.35,1.22-3.15,2.74-6.28,4.55-9.37,1.07-1.68,2.11-3.06,3.14-4.45.68-.82,1.33-1.35,1.98-1.88-.65.53-1.6,1.03-2.28,1.85-1.33,1.35-2.37,2.74-3.44,4.42s-2.11,3.06-2.88,4.77-1.52,3.12-2.29,4.83c-2.12.38-4.22.46-6.64.8-1.21.17-2.09.08-3.3.25-4.81.39-10.2.73-14.98.83,2.57-1.82,4.56-3.7,6.93-6.44h0Zm47.94-62.73c-1.92,1.29-3.84,2.58-5.73,3.58s-4.04,1.67-6.2,2.34c-1.83.41-3.36.84-5.16.95l15.17-11.25c2.26-4.54,4.52-9.08,7.08-13.58,1.42-2.24,2.55-4.51,3.95-6.45.71-1.12,1.39-1.94,2.4-3.03-.71,1.12-1.69,1.91-2.4,3.03-1.42,2.24-2.82,4.18-4.24,6.42-.71,1.12-1.45,2.53-2.17,3.65-.4-1.83-.51-3.63-.59-5.73-.17-1.21-.08-2.1-.25-3.31.12-1.18-.08-2.1.34-3.25-.42,1.15-.51,2.04-.63,3.22s-.22,2.07-.04,3.28c.08,2.1.13,4.49.5,6.62-1.49,2.83-3.27,5.63-4.46,8.49l-22.5,15.85c.57-2.63,1.44-5.22,2.27-7.52.45-1.45,1.22-3.15,1.67-4.6.74-1.41,1.49-2.83,2.52-4.21-1.3,1.06-2.04,2.47-2.79,3.89-.74,1.41-1.49,2.83-1.97,4.57-1.19,2.86-2.06,5.45-2.96,8.34l-12.21,8.57c.36-.56,1.01-1.09,1.04-1.38l1.07-1.68c.68-.82,1.07-1.68,1.78-2.8.39-.85,1.04-1.38,1.43-2.24.77-1.71,1.22-3.15,1.7-4.89.96-3.48,1.33-7.02,1.99-10.53.45-1.45.9-2.89,1.35-4.34.8-2,2.23-4.24,3.86-5.57,2.28-1.85,4.66-1.9,7.67-2.18,3.6-.22,6.14-1.75,8.21-4.51,2.46-3.62,3.78-7.66,7.36-10.57s7.89-4.25,11.96-6.21c3.43-1.43,6.62-3.49,9.28-6.19-1.03,7.05-1.77,14.14-2.8,21.19-.46,4.43-.96,9.15-2.86,13.13-2.23,4.24-7.1,5.23-10.12,8.49-2.37,2.74-3.89,5.86-5.14,9.31-.77,1.71-1.28,3.74-2.32,5.13-2.07,2.77-4.49,3.11-7.5,3.39-8.43.91-16.84,1.53-24.97,2.47l17.12-12.83c2.39-.05,4.54-.72,6.7-1.39,2.15-.67,4.34-1.64,6.23-2.63,1.8-.11,3.72-1.4,5.38-3.02,1.92-1.29,3.58-2.91,4.94-4.56-1.66,1.62-3.32,3.23-4.94,4.56l-.02-.02Zm-55.67-54.44c6.33,7.82,10.31,15.4,11.65,25.38,1.17,8.77,1.33,18.64-.18,27.43-1.33,7.02-7.15,11.49-10.75,17.38-.22-3.6-.41-7.5-.34-11.07-.11-1.8-.19-3.9,0-5.67,1.28-3.74,2.57-7.49,4.12-10.91.8-2,1.58-3.71,2.68-5.69.39-.85,1.07-1.68,1.49-2.83.68-.82,1.36-1.65,2.01-2.18-.95.5-1.63,1.32-2.31,2.15-.68.82-1.07,1.68-1.75,2.5-1.07,1.68-1.87,3.68-2.97,5.66-1.49,2.83-2.71,5.98-3.93,9.14l.03-.3c.07-3.57.12-6.85.19-10.42.18-1.77.07-3.57.23-5.05.09-.89.18-1.77.28-2.66.09-.89.18-1.77.54-2.33l.29-5.64c-.93-2.48-1.83-5.26-2.77-7.75.15-1.48.34-3.25.49-4.72.09-.89.18-1.77.54-2.33.03-.3.09-.89.42-1.15.03-.3.39-.85.71-1.12-.33.26-.65.53-.71,1.12-.03.3-.39.85-.42,1.15-.39.85-.48,1.74-.54,2.33-.45,1.45-.54,2.33-.66,3.51-.47-1.24-.93-2.48-1.1-3.7-.67-2.16-1.34-4.32-1.71-6.44-.37-2.13-1.01-4.58-.8-6.65.05,2.39.42,4.52.8,6.65.37,2.13,1.01,4.58,1.68,6.74,1.34,4.32,2.67,8.63,4.01,12.95l-.26,5.34c-.39.85-.48,1.74-.87,2.6-.03.3-.09.89-.12,1.18-.47-1.24-1.23-2.51-1.69-3.76-.7-1.86-1.72-3.46-2.75-5.06-1.02-1.6-2.05-3.2-3.37-4.83-1.32-1.63-2.67-2.96-4.38-3.74,1.68,1.07,3.03,2.4,4.05,4,1.32,1.63,2.05,3.2,3.07,4.8s1.72,3.46,2.45,5.03c.7,1.86,1.43,3.43,2.13,5.29-.18,1.77-.34,3.25-.52,5.02-.07,3.57-.12,6.85-.19,10.42-.79-.98-1.29-1.92-2.08-2.9-1.06-1.3-2.08-2.9-3.43-4.24-1.06-1.3-2.4-2.64-3.79-3.68-1.38-1.04-3.06-2.11-4.79-2.59,1.74.48,3.12,1.52,4.5,2.56s2.44,2.34,3.76,3.97c2.11,2.61,4.19,5.51,5.68,8.35.04,5.37.1,10.45.14,15.83-1.07-3.99-3.09-7.48-5.43-10.71-3.1-4.5-6.92-7.88-8.72-13.44-6.67-18.9,4.56-38.01,7.44-57.11,1.69,3.76,4.53,7.93,7.96,12.17v.02Z"/>
</svg>