<?xml version="1.0" encoding="UTF-8"?>
<svg id="Layer_1" data-name="Layer 1" xmlns="http://www.w3.org/2000/svg" width="262" height="295" viewBox="0 0 262 295">
  <defs>
    <style>
      .cls-1 {
        fill: #256d33;
        isolation: isolate;
        opacity: .7;
        stroke-width: 0px;
      }
    </style>
  </defs>
  <path class="cls-1" d="m3.05,212.63c2.2-1.47,4.39-2.69,6.59-4.15,5.12-3.67,10-7.58,14.64-11.49,6.59-5.62,12.93-11.49,20.49-15.89,4.88-2.93,10.25-5.13,15.86-6.35,4.39-.98,9.03-.98,13.42-.24,5.85.98,11.22,3.18,17.32,3.18,6.59,0,12.93-1.96,18.54-5.13,6.34-3.42,11.46-8.07,14.64-14.67.49-.98.98-1.95,1.46-2.93.98-1.96,1.95-3.91,2.93-5.62,2.2-3.67,4.39-7.33,6.59-11,2.44-3.67,4.63-7.33,7.07-10.75,1.22-1.71,2.44-3.67,3.66-5.38.98-1.71,2.2-3.42,3.41-4.89,1.22-1.47,1.46-3.18,2.2-4.89.73-1.71,1.95-3.42,2.93-5.13.24-.49.73-.98.98-1.47-.24.24-.98.73-1.46.98-.49.24-.98.73-1.46.98-.98.73-1.95,1.22-2.93,1.96-2.44,1.71-4.88,3.42-7.07,5.38-11.22,17.11-28.79,40.33-52.45,32.51-3.42-1.22-5.61-2.44-9.51-.49-2.2,1.22-4.39,1.96-6.83,1.71-4.39,0-8.29-1.95-11.95-4.15-5.37-3.18-10.25-7.09-15.12-11.24-2.68-2.2-5.12-4.64-7.32-7.09-1.22-1.22-2.44-2.69-3.66-3.91-.98-.98-1.46-1.96-2.44-2.93,4.39.25,8.78,1.47,13.42,1.71,4.64,0,9.27-.24,13.91-1.22,11.22-1.95,20.25-7.09,30.01-12.46,7.32-4.15,15.86-8.07,24.4-6.11,3.17.73,5.85,2.44,8.54,4.4,2.93,1.96,5.61,4.15,8.78,5.62,2.68,1.47,5.85,2.2,9.03.98,1.95-.73,3.66-2.44,5.37-3.67,1.95-1.47,3.9-2.69,5.86-3.91q.24,0,.49-.24c1.22-.73,2.44-1.47,3.66-2.2.73-.49,1.46-.98,2.2-1.47.98-.49,1.71-1.22,2.44-1.96.49-.73,1.22-1.47,1.71-2.2.98-1.47,1.95-3.18,2.68-4.89.73-1.47,1.22-2.93,1.71-4.4,2.44-7.58,6.1-14.66,11.22-20.77,2.93-3.67,7.32-6.84,9.27-11.24,1.22-2.69,1.71-5.87,2.68-8.55-.98,2.69-11.47,5.62-14.39,6.6-5.85,1.96-11.47,2.2-17.56,2.93-5.61,5.13-11.71,10.02-17.81,14.42-5.12,3.91-10.73,7.82-16.59,10.27-4.15,1.71-9.27,2.93-13.66,1.22-6.34-2.2-9.27-8.31-16.1-9.53-5.61-.98-11.22.24-16.83-.73-5.37-.98-9.76-3.67-13.42-7.58-4.88-5.13-8.54-11.24-12.2-17.35-2.44-3.91-5.12-8.07-7.56-11.98-1.46-2.44-3.17-4.89-4.64-7.33,11.47,5.87,22.69,12.95,36.1,11.24,10.25-1.47,20-4.4,28.54,3.42,4.64,4.16,8.78,7.82,14.88,9.78,5.85,1.96,12.44,2.44,18.54,2.44,3.66,0,7.32-.24,10.98-.49,1.95-.24,3.66-.24,5.61-.49,2.2-.24,4.39-.73,6.83-.73,8.54,0,16.1-2.44,23.42-6.35,4.15-2.2,7.81-5.13,11.71-8.07,1.95-1.47,3.66-2.93,5.61-4.64,3.42-2.69,5.12-6.35,7.81-10.02,3.17-5.62,9.51-9.29,15.61-12.46,7.07-3.91,14.15-7.82,21.22-11.49.24,1.22.73,2.44.98,3.67-6.34,3.42-12.44,6.84-18.78,10.02-6.59,3.67-13.9,7.33-18.05,14.18-3.42,5.62-5.37,13.2-6.34,19.55-.49,2.44-.98,4.89-1.22,7.33,0,.24,0,.49-.24.73-.24,1.71-.98,3.42-1.46,5.13-.24,1.71-.49,3.42-.73,5.38-.24,3.67-.24,7.33,0,11,.73,7.33,2.44,14.66,4.88,21.51.49,1.47.97,2.69,1.71,4.15,3.17,7.33,7.81,14.42,14.15,19.06,6.34,4.4,13.91,5.87,20.49,9.78,4.88,2.69,9.27,7.09,10.25,12.71.98,6.35-1.71,12.95-1.95,19.31-.24,7.09.49,14.18,2.68,21.02,1.22,3.67,2.68,7.09,4.39,10.26,1.22,2.44,2.68,4.89,3.9,7.33.73,1.47.24,1.47-.49,1.22-.24,0-.73-.24-.98-.49-4.64-3.42-9.27-6.6-14.39-9.29-4.88-2.69-9.76-5.13-14.64-7.58-10.73-5.87-19.52-12.71-23.42-24.68-1.22-3.42-1.95-7.09-3.66-10.51-1.95-4.64-5.37-7.33-8.78-11-4.63-4.4-6.59-10.51-6.59-16.62-.24-6.84,1.46-13.69,3.17-20.29,1.46-6.11,3.17-12.22,4.63-18.33.49-1.47.73-2.93,1.22-4.4.24-1.22.49-2.2.73-3.42.24-.98.24-1.96.24-2.93-.24-1.22,0-2.2,0-3.42,0-1.96.24-3.91.24-6.11.49-4.15,1.71-7.82,2.44-11.73.49-2.44.73-4.89,1.22-7.33.49-2.44.98-5.62,1.71-8.07-3.41,2.44-6.34,4.4-9.51,7.09-.73,1.71-1.71,3.42-2.2,5.13-.49,1.96-.73,3.91-1.46,5.62-.98,2.93-2.93,5.38-5.12,7.82-5.37,5.87-10.25,11.73-13.66,19.06-2.93,6.84-3.9,13.69-9.03,19.55-2.44,2.93-5.12,5.38-6.83,8.8-2.2,3.91-2.93,8.31-3.42,12.71-.49,4.16-.24,8.31,0,12.47.49,3.91.98,8.31,1.95,12.22.49,1.71,1.71,2.93,2.68,4.4,1.22,1.47,2.19,2.93,3.41,4.15,2.44,2.69,5.12,5.13,8.05,7.33,4.88,3.67,10.49,6.6,15.61,10.02,7.32,5.13,14.15,13.2,12.93,22.73-.49,4.64-3.66,8.07-5.85,12.22-1.71,3.42-1.95,6.11-.98,9.78.49,1.96.98,3.67.73,5.62-.49,5.38-4.88,10.51-7.07,15.15-1.46,3.42-4.88,10.26-5.12,15.89v1.47c-.24.49-.24.98-.49,1.47v.24c-.24.49-.49.73-.49,1.22v.25c-.49-.73-.98-1.47-1.46-2.2-3.42-7.09-7.32-13.69-11.71-20.29-2.2-3.42-4.63-6.6-7.07-9.78-2.68-3.42-5.61-6.84-6.83-11-.73-2.2-.73-4.4-1.71-6.6-.97-1.96-2.44-3.42-3.41-5.13-1.46-2.69-2.44-5.62-2.93-8.8-1.22-7.09.49-14.18,2.68-21.02,2.68-7.58,8.54-16.13,7.32-24.69-1.22-7.58-2.93-14.91-2.68-22.73,0-2.2.24-4.4.49-6.35-8.29,12.46-17.32,24.93-23.42,38.62-3.17,7.09-5.85,14.42-8.78,21.75-1.22,3.18-2.44,6.35-3.66,9.53v.24c4.39,12.22,9.27,24.68,12.93,37.15,2.68,8.8-7.81,14.42-11.47,21.51-2.68,4.64-1.46,10.26-3.9,14.91-2.19,3.91-5.86,6.6-9.51,9.04-7.81,5.13-15.86,10.02-23.91,15.15-3.42,2.2-6.83,4.64-10.73,6.11,3.17-2.2,5.12-6.6,6.34-10.02.98-3.18,1.22-6.35,1.22-9.53,0-3.42-.24-7.09-.24-10.51.24-3.91.73-7.82,2.68-11.24,2.2-3.91,6.59-7.58,7.07-12.22.49-4.4-2.93-8.07-2.68-12.71.24-3.42,1.71-6.6,3.9-9.29,4.88-6.11,12.69-9.04,17.81-14.66,3.42-3.67,4.88-8.31,6.83-12.71.98-2.2,1.95-4.15,2.93-6.35,2.19-5.62,4.39-11.49,6.59-17.11-4.15,4.4-9.27,7.82-14.88,9.78,0,0-.24,0-.24.24-1.95,1.22-2.93,3.91-4.15,5.62-1.22,1.96-2.2,4.15-3.17,6.11-1.95,4.15-4.15,8.31-7.56,11.24-7.56,6.35-18.54,11-27.81,14.18-9.03,3.18-18.54,4.64-28.05,2.93-11.71-2.2-22.44-6.84-34.15-2.2-.24,0-.49.24-.98.24-.73-2.2,1.95-3.42,2.93-4.15Zm119.05-91.65c-2.19,2.93-4.39,5.87-7.07,8.55-1.22,1.47-2.68,2.69-4.15,4.15-1.46,1.22-3.17,2.44-4.88,3.18,1.71-.73,3.42-1.95,4.64-3.18,1.46-1.22,2.68-2.69,3.9-4.15,2.19-2.44,4.15-5.13,6.1-8.07-.73.24-1.46.24-2.2.49-1.71.49-3.66.73-5.37.98-1.95.24-3.66.49-5.61.73-3.17.25-6.59.25-9.76.73-1.95,1.71-3.9,3.67-5.85,5.13-1.95,1.71-4.15,3.42-6.34,4.89-2.2,1.47-4.39,2.93-6.83,4.15-1.22.49-2.44,1.22-3.66,1.47-1.22.49-2.68.73-3.9.49,1.22,0,2.68-.24,3.9-.73,1.22-.49,2.44-.98,3.66-1.71,2.44-1.22,4.64-2.69,6.59-4.4,3.9-2.93,7.56-6.36,10.98-9.78-3.66.24-7.07.98-10.49,2.44-1.71.73-3.42,1.47-5.12,2.2-1.71.73-3.42,1.22-5.37,1.71-3.66.98-7.32,1.47-10.98,1.22-1.95,0-3.66-.24-5.37-.73-1.71-.49-3.66-.98-5.12-1.71,1.71.73,3.42,1.22,5.37,1.47,1.71.24,3.66.49,5.37.49,3.66,0,7.32-.49,10.73-1.47,1.71-.49,3.42-.98,5.12-1.71,1.71-.73,3.17-1.71,5.12-2.2,3.42-1.47,7.07-2.2,10.73-2.69,2.93-.24,5.61-.49,8.54-.73l-10-7.33-9.03.73,9.03-.98,10.98,7.58h.98c1.71-.25,3.66-.49,5.37-.73,1.71-.25,3.66-.73,5.37-1.22,5.37-1.22,12.69-3.67,18.54-5.38-5.12-.98-9.76-4.64-14.15-7.82-11.47-7.82-23.17-1.96-33.66,4.4-15.12,8.8-31.47,13.44-48.55,11.73q.24.25.49.49c4.15,3.91,8.29,8.07,12.93,11.49,4.88,3.67,10,7.82,15.61,9.78,3.17.98,6.34,1.22,9.27-.25,1.95-.73,3.66-1.95,5.61-2.2,1.95,0,3.42.73,5.12,1.47,2.68.98,5.37,1.71,8.29,1.71,5.61.24,11.22-1.22,16.1-3.91,10.98-5.62,18.3-15.89,24.88-25.91-3.41,1.96-10.98,3.91-15.86,5.13Zm-.24-48.15l8.05-7.82c-3.17.49-6.59.98-9.76.98-3.9,0-8.05-.24-11.71-1.71-.49-.24-.98-.24-1.46-.49l-1.46-.73c-.98-.49-1.71-.98-2.44-1.47-.98-.73-1.95-1.22-2.93-1.96-.49.49-1.22.73-1.71,1.22-.73.49-1.46.73-2.2.98-.73.24-1.46.49-2.44.49-.73,0-1.71,0-2.44-.24.73.24,1.46.24,2.2,0,.73-.24,1.46-.49,2.2-.73.73-.24,1.46-.73,1.95-1.22.49-.24.98-.73,1.46-1.22-.49-.24-.73-.49-1.22-.73-1.71-.98-3.42-1.96-5.12-2.69-1.22-.49-2.2-.73-3.42-.98-3.42.98-7.32,1.96-10.73,2.93-1.71.49-3.42.73-5.12,1.22-.98.24-1.71.24-2.68.49-.49,0-.98,0-1.22.24-.49,0-.98,0-1.22-.24.49.24.98.24,1.22.24.49,0,.98,0,1.22-.24.98-.24,1.71-.24,2.68-.49,1.71-.49,3.42-.98,5.12-1.47,3.17-.98,5.85-1.71,9.03-2.69h-.24c-3.9-.49-7.81-.49-11.71-.98-1.95-.24-3.9-.49-5.85-1.22-1.95-.49-3.66-1.47-5.12-2.44,1.46,1.22,3.42,1.96,5.37,2.44s3.9.73,5.85.98c3.9.49,7.81.49,11.71.73,1.46.24,2.93.49,4.39.98-.49-1.22-.98-2.69-1.46-3.91-.73-1.47-1.71-2.93-2.93-3.91,1.46.98,2.44,2.2,3.42,3.67.49.73.98,1.47,1.22,2.2.49.73.73,1.47.98,2.2h.24c1.95.73,3.66,1.47,5.37,2.44,1.71.98,3.41,1.96,4.88,3.18.73.49,1.71.98,2.44,1.47l1.22.49c.49.24.98.24,1.46.49,1.71.49,3.66.98,5.61,1.22l-4.15-6.84-5.37-4.4,5.61,3.91,4.88,7.09c1.46.24,3.17.24,4.64,0,3.9,0,7.81-.73,11.47-1.47,3.9-.73,7.56-1.96,11.22-2.93,1.95-.73,5.12-1.96,7.56-2.93-4.64.49-9.51.73-14.15.73-11.47,0-22.93-2.44-31.71-10.75-2.68-2.44-4.88-5.13-8.54-6.11-3.17-.98-6.83-.73-10-.49-5.61.73-11.22,2.2-16.83,1.96-8.05-.24-15.86-3.18-22.44-7.82,5.37,8.55,10.73,17.35,16.83,25.17,4.15,5.13,9.27,9.04,16.1,9.78,4.88.49,10-.24,14.88.49,4.88.73,8.05,3.18,11.47,6.35,5.61,4.89,11.46,4.64,18.05,1.71,10-4.64,19.27-11.98,27.57-19.31-2.93.98-6.59,2.44-8.54,2.93-3.66,1.22-7.56,2.2-11.47,2.93h-.49l-9.27,8.31Zm76.84,24.93c-.24-2.2-.24-6.11-.49-9.78-1.22,4.64-2.44,9.53-3.66,14.18-1.71,7.09-3.66,14.42-3.17,21.75.24,3.67,1.22,7.58,3.17,10.75,2.2,3.18,5.37,5.13,7.81,8.07,4.63,5.38,5.85,12.47,8.29,19.06,7.07,19.55,29.27,23.71,44.89,34.95-4.63-8.55-7.32-18.33-7.81-28.35,0-3.42,0-7.09.49-10.51.49-3.91,1.95-8.06,1.71-11.98-.73-10.02-11.71-13.69-19.51-16.62-13.91-5.62-22.69-16.38-27.32-30.55-.98-3.18-1.95-6.35-2.68-9.53-.24,3.18-.49,6.6-.49,8.55.24,4.89.73,9.78,1.46,14.42v.24c1.95,2.93,4.15,5.87,6.34,8.55,1.22,1.47,2.44,2.93,3.9,4.15,1.46,1.22,2.93,2.69,4.63,3.18-1.71-.73-3.41-1.96-4.88-3.18-1.46-1.22-2.68-2.69-3.9-4.15-1.95-2.2-3.9-4.4-5.61-6.84.24,1.47.73,3.18,1.22,4.64.73,2.2,1.46,4.64,2.44,6.84.98,2.2,2.2,4.15,3.66,6.11,1.46,1.71,3.42,3.42,5.37,4.4,3.9,1.71,7.32,4.64,9.76,8.07,1.71.73,3.42,1.96,4.88,3.18,1.46,1.22,2.68,2.44,3.9,3.67,1.22,1.22,2.2,2.69,3.42,4.15-.98-1.47-2.2-2.69-3.42-3.91-1.22-1.22-2.44-2.44-3.9-3.42-.98-.73-2.2-1.47-3.41-2.2l.24.24c1.22,2.2,2.44,4.4,2.68,6.84.49,2.44.24,4.89.24,7.33s.24,4.89,1.22,7.09c.97,2.2,2.44,4.15,3.9,6.11,3.17,3.67,6.83,6.84,11.22,9.29-4.15-2.44-8.05-5.38-11.22-9.04-1.46-1.96-2.93-3.91-3.9-6.11-.24-.73-.73-1.71-.73-2.44-.24.49-.24.73-.49,1.47-.24.73-.24,1.71-.49,2.44v2.44c0,.73.24,1.71.49,2.44-.24-.73-.73-1.71-.73-2.44-.24-.98-.24-1.71-.24-2.69s0-1.71.24-2.69c.24-.73.49-2.2.73-2.93-.24-.98-.24-1.96-.24-2.93,0-2.44,0-4.89-.24-7.33s-1.46-4.64-2.68-6.6c-2.68-3.91-6.34-7.33-10.73-9.29-2.2-.98-4.15-2.69-5.86-4.64-.73-.98-1.46-1.71-1.95-2.69.49,3.91.98,7.82,1.71,11.49.49,2.2.98,4.4,1.71,6.6.73,2.2,1.46,4.4,2.93,6.36-1.46-1.96-2.2-4.15-3.17-6.11-.73-2.2-1.46-4.4-1.95-6.6-.98-4.4-1.71-8.8-2.2-13.44-.24-.49-.73-1.22-.98-1.71-.98-2.2-1.95-4.64-2.68-6.84-.73-2.44-1.22-4.64-1.71-7.09-1.22-4.64-1.95-9.53-2.2-14.42Zm-46.59,67.21c-3.17,7.58-6.59,15.4-7.07,23.71-.24,3.91.24,8.07,1.71,11.73,1.46,3.91,4.63,6.6,5.85,10.75,1.22,5.13,3.17,8.8,6.34,12.95,2.93,3.91,5.85,7.82,8.54,11.98,3.42,5.13,6.59,10.51,9.27,15.89,0-.24.24-.73.24-.98,1.46-5.62,3.66-11,6.1-16.13,1.22-2.69,2.93-5.38,4.39-8.07,1.95-3.91.73-6.6,0-10.51-.73-4.64.98-8.07,3.42-11.98,3.66-5.62,5.37-10.75,2.44-17.11-2.68-6.11-8.05-10.26-13.42-13.69-8.54-5.38-16.1-10.51-22.44-17.84,2.44,5.86,4.63,12.46,6.59,18.57.24.98.49,1.71.98,2.69,2.44,1.47,4.88,2.93,7.32,4.15,1.22.73,2.68,1.22,4.15,1.96,1.46.49,2.93.98,4.39,1.22-1.46,0-2.93-.49-4.39-.98s-2.93-.98-4.15-1.71c-2.2-.98-4.63-2.2-6.83-3.42.73,2.44,1.46,4.64,1.95,7.09.49,1.96.73,3.67.98,5.62,0,.49,0,.98-.24,1.47q0,.24-.24.49l-.24.24-.24.49c-.49.73-.73,1.71-.73,2.44-.24,1.71-.49,3.67-.49,5.62v2.93c2.93,2.93,5.61,5.87,8.05,9.04,1.22,1.47,2.44,3.18,3.66,4.89,1.22,1.71,2.19,3.42,2.93,5.38-.73-1.96-1.95-3.42-3.17-5.13-1.22-1.71-2.44-3.18-3.9-4.64-2.44-2.69-5.12-5.38-7.81-7.82,0,.49,0,.98.24,1.22.49,3.67,1.46,7.33,2.2,11,.73,3.67,1.71,7.33,2.93,11,.49,1.71,1.22,3.67,1.95,5.38.24.98.73,1.71,1.22,2.44.49.73.73,1.47,1.22,1.95-.49-.49-.98-1.22-1.46-1.95-.49-.73-.98-1.71-1.22-2.44-.73-1.71-1.46-3.42-1.95-5.38-1.22-3.67-2.2-7.33-3.17-11-.24-.73-.49-1.71-.49-2.44-.73,1.22-1.46,2.69-2.2,4.15-.24.73-.73,1.71-.98,2.44-.24.98-.24,1.71,0,2.69-.49-.73-.24-1.71-.24-2.69.24-.98.49-1.71.73-2.69.49-1.71,1.46-3.67,2.2-5.13-.49-2.44-1.22-4.89-1.46-7.33-.24-1.96-.49-3.67-.49-5.62s0-3.91.24-5.62c.24-.98.49-1.96.98-2.93l.73-.98v-1.71c0-1.71-.49-3.67-.98-5.38-.24-.98-.49-1.71-.73-2.69-2.68,2.93-5.12,6.11-7.32,9.29-1.22,1.71-2.2,3.67-3.17,5.62-.49.98-.73,1.96-.97,2.93.24-.98.49-2.2.97-3.18.73-1.96,1.71-3.91,2.93-5.62,1.22-1.71,2.44-3.67,3.66-5.38,1.22-1.71,2.44-3.18,3.66-4.64-.73-2.44-1.46-4.89-2.44-7.09-.49-1.22-.73-2.44-1.22-3.42-1.95-5.38-4.15-10.75-6.34-15.89-.24,3.18-1.46,6.35-2.93,9.78Zm-41.71,79.92c.49-2.44.73-5.13.73-7.58,0-2.69-.24-5.13-.73-7.58-.24-1.96-.98-3.91-1.46-5.87l-4.15,21.02c-3.66,4.64-7.07,9.29-10.49,13.93-1.71,2.44-3.17,4.89-4.64,7.33-.73,1.22-1.46,2.44-1.95,3.91.49-1.22,1.22-2.69,1.95-3.91,1.46-2.44,2.93-5.13,4.64-7.58.98-1.47,1.95-2.69,2.93-4.15-2.2.73-3.9,1.22-6.1,2.2-1.22.49-2.44.98-3.42,1.47-1.22.49-2.2,1.22-3.17,1.96.98-.98,1.95-1.47,3.17-2.2,1.22-.49,2.2-1.22,3.42-1.71,2.2-.98,4.88-1.96,7.07-2.93,2.2-2.93,4.39-5.86,6.59-8.8l5.61-31.04c-2.44,1.96-4.64,3.91-6.83,6.11-1.22,1.22-2.68,2.69-3.9,3.91-1.22,1.47-2.44,2.93-2.93,4.64.49-1.71,1.71-3.18,2.68-4.64,1.22-1.47,2.44-2.93,3.66-4.16,2.44-2.44,4.88-4.89,7.32-7.09l2.93-16.86c-.24.73-.73,1.47-.98,1.71-.24.73-.73,1.22-.98,1.96-.73.98-1.22,1.96-1.95,3.18-.49.98-1.22,1.71-1.71,2.44-1.22,1.47-2.68,2.93-4.39,4.15-3.17,2.44-6.59,4.64-9.76,7.09-1.46,1.22-2.68,2.2-3.9,3.67-1.71,1.96-3.17,4.15-3.9,6.84-.73,3.42.49,5.87,1.46,8.8,1.22,3.91,1.22,7.09-.73,10.51-2.44,4.4-6.1,7.82-7.32,12.95-1.22,5.13-.49,10.27-.49,15.4,0,4.15-.49,8.55-2.2,12.47,6.83-4.4,13.66-8.56,20.49-12.95,4.15-2.69,9.03-5.13,11.95-9.29,3.17-4.4,1.95-9.78,4.15-14.67,1.71-3.67,4.39-6.84,7.08-9.78,1.46-1.71,3.17-3.18,4.15-5.13,1.95-3.42.98-6.11-.24-9.53-3.17-9.04-6.34-18.09-9.51-27.13l-5.12,23.95c.98,2.44,1.46,4.89,1.95,7.33.49,2.69.49,5.13.49,7.82-.24,2.69-.73,5.38-1.46,7.82-.24,2.69-1.22,4.89-2.2,7.33.73-2.44,1.71-4.89,2.2-7.33Zm-83.19-31.28c10.98,2.69,20.74,3.42,31.71,0,9.51-2.93,20-7.58,28.05-13.44,6.59-4.89,8.54-12.95,12.69-19.55-3.66,1.47-7.81,3.18-11.71,4.89-1.95.98-3.9,1.71-6.1,2.69-3.17,3.18-6.34,6.35-9.51,9.53-1.71,1.71-3.17,3.67-4.64,5.38-.73.98-1.46,1.96-1.95,2.93-.49.98-1.22,2.2-1.22,3.18.24-1.22.73-2.2,1.22-3.42.49-.98,1.22-1.96,1.95-2.93,1.46-1.96,2.93-3.91,4.39-5.62,2.44-2.93,4.88-5.62,7.56-8.31q-.24,0-.49.24c-3.66,1.71-7.07,3.42-10.73,5.13-1.71.98-3.42,1.71-5.12,2.69-.73.49-1.71.98-2.44,1.47-.73.49-1.71,1.22-2.2,1.71l-5.61,2.93c-3.17.24-6.34.49-9.51.98-1.46.98-3.17,1.96-4.63,2.93-.73.49-1.46.98-2.44,1.71-.49.24-.73.49-.98.98.24-.24.73-.73.98-.98.73-.73,1.46-1.22,2.2-1.71,1.22-.98,2.2-1.71,3.42-2.44-1.46.24-2.93.49-4.39.49-2.44.49-5.12.73-7.56,1.47-2.44.49-5.12,1.22-7.32,2.2,2.2-1.22,4.88-1.96,7.32-2.44,2.44-.49,5.12-.98,7.56-1.47,5.12-.73,10.25-1.47,15.37-1.96l5.37-2.93c.73-.98,1.46-1.47,2.2-1.96.24-.24.73-.49.98-.73h-4.88c-2.2,0-4.39-.24-6.59-.49-2.2-.24-4.39-.49-6.59-1.22-2.2-.49-4.15-1.22-6.1-2.69,1.95,1.22,3.9,1.96,6.1,2.44,2.2.49,4.39.73,6.59.98,2.2.24,4.39.24,6.59.24s4.39-.24,6.34-.49c1.71-.98,3.42-1.96,5.12-2.93,3.42-1.96,7.07-3.67,10.49-5.38-1.46-.24-2.68-.49-4.15-.73-1.95-.49-3.9-.98-5.85-1.47-1.95-.49-3.9-1.22-5.61-2.2-1.71-.98-3.66-1.96-4.88-3.67,1.22,1.47,3.17,2.69,4.88,3.42,1.95.73,3.66,1.47,5.85,1.96,3.66.98,7.56,1.47,11.47,1.96,5.37-2.69,10.98-5.13,16.34-7.58-4.64.73-9.27.49-13.66-.49-6.1-1.22-11.71-3.42-18.05-2.69-22.69,2.2-37.08,22.97-55.38,35.19,5.85-.24,11.71.49,17.56,2.2Z"/>
</svg>