<?xml version="1.0" encoding="UTF-8"?>
<svg id="Layer_1" data-name="Layer 1" xmlns="http://www.w3.org/2000/svg" width="262.45" height="294.7" viewBox="0 0 262.45 294.7">
  <defs>
    <style>
      .cls-1 {
        fill: #651c17;
        isolation: isolate;
        opacity: .7;
        stroke-width: 0px;
      }
    </style>
  </defs>
  <path class="cls-1" d="m3.31,212.6c2.2-1.5,4.4-2.7,6.6-4.1,5.1-3.7,10-7.6,14.6-11.5,6.6-5.6,12.9-11.5,20.5-15.9,4.9-2.9,10.2-5.1,15.9-6.4,4.4-1,9-1,13.4-.2,5.8,1,11.2,3.2,17.3,3.2,6.6,0,12.9-2,18.5-5.1,6.3-3.4,11.5-8.1,14.6-14.7.5-1,1-1.9,1.5-2.9,1-2,1.9-3.9,2.9-5.6,2.2-3.7,4.4-7.3,6.6-11,2.4-3.7,4.6-7.3,7.1-10.8,1.2-1.7,2.4-3.7,3.7-5.4,1-1.7,2.2-3.4,3.4-4.9s1.5-3.2,2.2-4.9c.7-1.7,1.9-3.4,2.9-5.1.2-.5.7-1,1-1.5-.2.2-1,.7-1.5,1-.5.2-1,.7-1.5,1-1,.7-1.9,1.2-2.9,2-2.4,1.7-4.9,3.4-7.1,5.4-11.2,17.1-28.8,40.3-52.4,32.5-3.4-1.2-5.6-2.4-9.5-.5-2.2,1.2-4.4,2-6.8,1.7-4.4,0-8.3-1.9-12-4.1-5.4-3.2-10.2-7.1-15.1-11.2-2.7-2.2-5.1-4.6-7.3-7.1-1.2-1.2-2.4-2.7-3.7-3.9-1-1-1.5-2-2.4-2.9,4.4.2,8.8,1.5,13.4,1.7,4.6,0,9.3-.2,13.9-1.2,11.2-1.9,20.3-7.1,30-12.5,7.3-4.2,15.9-8.1,24.4-6.1,3.2.7,5.8,2.4,8.5,4.4,2.9,2,5.6,4.2,8.8,5.6,2.7,1.5,5.9,2.2,9,1,1.9-.7,3.7-2.4,5.4-3.7,1.9-1.5,3.9-2.7,5.9-3.9.2,0,.3-.1.5-.2,1.2-.7,2.4-1.5,3.7-2.2.7-.5,1.5-1,2.2-1.5,1-.5,1.7-1.2,2.4-2,.5-.7,1.2-1.5,1.7-2.2,1-1.5,1.9-3.2,2.7-4.9.7-1.5,1.2-2.9,1.7-4.4,2.4-7.6,6.1-14.7,11.2-20.8,2.9-3.7,7.3-6.8,9.3-11.2,1.2-2.7,1.7-5.9,2.7-8.5-1,2.7-11.5,5.6-14.4,6.6-5.9,2-11.5,2.2-17.6,2.9-5.6,5.1-11.7,10-17.8,14.4-5.1,3.9-10.7,7.8-16.6,10.3-4.2,1.7-9.3,2.9-13.7,1.2-6.3-2.2-9.3-8.3-16.1-9.5-5.6-1-11.2.2-16.8-.7-5.4-1-9.8-3.7-13.4-7.6-4.9-5.1-8.5-11.2-12.2-17.3-2.4-3.9-5.1-8.1-7.6-12-1.5-2.4-3.2-4.9-4.6-7.3,11.5,5.9,22.7,12.9,36.1,11.2,10.2-1.5,20-4.4,28.5,3.4,4.6,4.2,8.8,7.8,14.9,9.8,5.8,2,12.4,2.4,18.5,2.4,3.7,0,7.3-.2,11-.5,1.9-.2,3.7-.2,5.6-.5,2.2-.2,4.4-.7,6.8-.7,8.5,0,16.1-2.4,23.4-6.3,4.1-2.2,7.8-5.1,11.7-8.1,1.9-1.5,3.7-2.9,5.6-4.6,3.4-2.7,5.1-6.4,7.8-10,3.2-5.6,9.5-9.3,15.6-12.5,7.3-4.1,14.4-8,21.5-11.7.2,1.2.7,2.4,1,3.7-6.3,3.4-12.4,6.8-18.8,10-6.6,3.7-13.9,7.3-18.1,14.2-3.4,5.6-5.4,13.2-6.3,19.5-.5,2.4-1,4.9-1.2,7.3,0,.2,0,.5-.2.7-.2,1.7-1,3.4-1.5,5.1-.2,1.7-.5,3.4-.7,5.4-.2,3.7-.2,7.3,0,11,.7,7.3,2.4,14.7,4.9,21.5.5,1.5,1,2.7,1.7,4.2,3.2,7.3,7.8,14.4,14.1,19.1,6.3,4.4,13.9,5.9,20.5,9.8,4.9,2.7,9.3,7.1,10.2,12.7,1,6.4-1.7,12.9-1.9,19.3-.2,7.1.5,14.2,2.7,21,1.2,3.7,2.7,7.1,4.4,10.3,1.2,2.4,2.7,4.9,3.9,7.3.7,1.5.2,1.5-.5,1.2-.2,0-.7-.2-1-.5-4.6-3.4-9.3-6.6-14.4-9.3-4.9-2.7-9.8-5.1-14.6-7.6-10.7-5.9-19.5-12.7-23.4-24.7-1.2-3.4-1.9-7.1-3.7-10.5-1.9-4.6-5.4-7.3-8.8-11-4.6-4.4-6.6-10.5-6.6-16.6-.2-6.8,1.5-13.7,3.2-20.3,1.5-6.1,3.2-12.2,4.6-18.3.5-1.5.7-2.9,1.2-4.4.2-1.2.5-2.2.7-3.4.2-1,.2-2,.2-2.9-.2-1.2,0-2.2,0-3.4,0-2,.2-3.9.2-6.1.5-4.2,1.7-7.8,2.4-11.7.5-2.4.7-4.9,1.2-7.3s1-5.6,1.7-8.1c-3.4,2.4-6.3,4.4-9.5,7.1-.7,1.7-1.7,3.4-2.2,5.1-.5,2-.7,3.9-1.5,5.6-1,2.9-2.9,5.4-5.1,7.8-5.4,5.9-10.2,11.7-13.7,19.1-2.9,6.8-3.9,13.7-9,19.5-2.4,2.9-5.1,5.4-6.8,8.8-2.2,3.9-2.9,8.3-3.4,12.7-.5,4.2-.2,8.3,0,12.5.5,3.9,1,8.3,1.9,12.2.5,1.7,1.7,2.9,2.7,4.4,1.2,1.5,2.2,2.9,3.4,4.1,2.4,2.7,5.1,5.1,8.1,7.3,4.9,3.7,10.5,6.6,15.6,10,7.3,5.1,14.1,13.2,12.9,22.7-.5,4.6-3.7,8.1-5.9,12.2-1.7,3.4-1.9,6.1-1,9.8.5,2,1,3.7.7,5.6-.5,5.4-4.9,10.5-7.1,15.1-1.5,3.4-4.9,10.3-5.1,15.9v1.5c-.2.5-.2,1-.5,1.5v.2c-.2.5-.5.7-.5,1.2v.2c-.5-.7-1-1.5-1.5-2.2-3.4-7.1-7.3-13.7-11.7-20.3-2.2-3.4-4.6-6.6-7.1-9.8-2.7-3.4-5.6-6.8-6.8-11-.7-2.2-.7-4.4-1.7-6.6-1-2-2.4-3.4-3.4-5.1-1.5-2.7-2.4-5.6-2.9-8.8-1.2-7.1.5-14.2,2.7-21,2.7-7.6,8.5-16.1,7.3-24.7-1.2-7.6-2.9-14.9-2.7-22.7,0-2.2.2-4.4.5-6.3-8.3,12.5-17.3,24.9-23.4,38.6-3.2,7.1-5.8,14.4-8.8,21.8-1.2,3.2-2.4,6.4-3.7,9.5v.2c4.4,12.2,9.3,24.7,12.9,37.2,2.7,8.8-7.8,14.4-11.5,21.5-2.7,4.6-1.5,10.3-3.9,14.9-2.2,3.9-5.9,6.6-9.5,9-7.8,5.1-15.9,10-23.9,15.1-3.4,2.2-6.8,4.6-10.7,6.1,3.2-2.2,5.1-6.6,6.3-10,1-3.2,1.2-6.4,1.2-9.5,0-3.4-.2-7.1-.2-10.5.2-3.9.7-7.8,2.7-11.2,2.2-3.9,6.6-7.6,7.1-12.2.5-4.4-2.9-8.1-2.7-12.7.2-3.4,1.7-6.6,3.9-9.3,4.9-6.1,12.7-9,17.8-14.7,3.4-3.7,4.9-8.3,6.8-12.7,1-2.2,1.9-4.1,2.9-6.4,2.2-5.6,4.4-11.5,6.6-17.1-4.2,4.4-9.3,7.8-14.9,9.8,0,0-.2,0-.2.2-1.9,1.2-2.9,3.9-4.2,5.6-1.2,2-2.2,4.1-3.2,6.1-1.9,4.1-4.2,8.3-7.6,11.2-7.6,6.4-18.5,11-27.8,14.2-9,3.2-18.5,4.6-28,2.9-11.7-2.2-22.4-6.8-34.2-2.2-.2,0-.5.2-1,.2-.2-1.8,2.4-3,3.3-3.8h0Zm119.1-91.6c-2.2,2.9-4.4,5.9-7.1,8.5-1.2,1.5-2.7,2.7-4.2,4.1-1.5,1.2-3.2,2.4-4.9,3.2,1.7-.7,3.4-1.9,4.6-3.2,1.5-1.2,2.7-2.7,3.9-4.1,2.2-2.4,4.2-5.1,6.1-8.1-.7.2-1.5.2-2.2.5-1.7.5-3.7.7-5.4,1-1.9.2-3.7.5-5.6.7-3.2.2-6.6.2-9.8.7-1.9,1.7-3.9,3.7-5.8,5.1-1.9,1.7-4.2,3.4-6.3,4.9-2.2,1.5-4.4,2.9-6.8,4.1-1.2.5-2.4,1.2-3.7,1.5-1.2.5-2.7.7-3.9.5,1.2,0,2.7-.2,3.9-.7,1.2-.5,2.4-1,3.7-1.7,2.4-1.2,4.6-2.7,6.6-4.4,3.9-2.9,7.6-6.4,11-9.8-3.7.2-7.1,1-10.5,2.4-1.7.7-3.4,1.5-5.1,2.2-1.7.7-3.4,1.2-5.4,1.7-3.7,1-7.3,1.5-11,1.2-2,0-3.7-.2-5.4-.7s-3.7-1-5.1-1.7c1.7.7,3.4,1.2,5.4,1.5,1.7.2,3.7.5,5.4.5,3.7,0,7.3-.5,10.7-1.5,1.7-.5,3.4-1,5.1-1.7s3.2-1.7,5.1-2.2c3.4-1.5,7.1-2.2,10.7-2.7,2.9-.2,5.6-.5,8.5-.7l-10-7.3-9,.7,9-1,11,7.6h1c1.7-.2,3.7-.5,5.4-.7,1.7-.2,3.7-.7,5.4-1.2,5.4-1.2,12.7-3.7,18.5-5.4-5.1-1-9.8-4.6-14.2-7.8-11.5-7.8-23.2-2-33.7,4.4-15.1,8.8-31.5,13.4-48.5,11.7.2.2.3.3.5.5,4.2,3.9,8.3,8.1,12.9,11.5,4.9,3.7,10,7.8,15.6,9.8,3.2,1,6.3,1.2,9.3-.2,1.9-.7,3.7-1.9,5.6-2.2,1.9,0,3.4.7,5.1,1.5,2.7,1,5.4,1.7,8.3,1.7,5.6.2,11.2-1.2,16.1-3.9,11-5.6,18.3-15.9,24.9-25.9-3.2,1.9-10.8,3.9-15.7,5.1h0Zm-.2-48.2l8-7.8c-3.2.5-6.6,1-9.8,1-3.9,0-8.1-.2-11.7-1.7-.5-.2-1-.2-1.5-.5l-1.5-.7c-1-.5-1.7-1-2.4-1.5-1-.7-1.9-1.2-2.9-2-.5.5-1.2.7-1.7,1.2-.7.5-1.5.7-2.2,1-.7.2-1.5.5-2.4.5-.7,0-1.7,0-2.4-.2.7.2,1.5.2,2.2,0s1.5-.5,2.2-.7,1.5-.7,1.9-1.2c.5-.2,1-.7,1.5-1.2-.5-.2-.7-.5-1.2-.7-1.7-1-3.4-2-5.1-2.7-1.2-.5-2.2-.7-3.4-1-3.4,1-7.3,2-10.7,2.9-1.7.5-3.4.7-5.1,1.2-1,.2-1.7.2-2.7.5-.5,0-1,0-1.2.2-.5,0-1,0-1.2-.2.5.2,1,.2,1.2.2.5,0,1,0,1.2-.2,1-.2,1.7-.2,2.7-.5,1.7-.5,3.4-1,5.1-1.5,3.2-1,5.8-1.7,9-2.7h-.2c-3.9-.5-7.8-.5-11.7-1-1.9-.2-3.9-.5-5.8-1.2-1.9-.5-3.7-1.5-5.1-2.4,1.5,1.2,3.4,2,5.4,2.4s3.9.7,5.8,1c3.9.5,7.8.5,11.7.7,1.5.2,2.9.5,4.4,1-.5-1.2-1-2.7-1.5-3.9-.7-1.5-1.7-2.9-2.9-3.9,1.5,1,2.4,2.2,3.4,3.7.5.7,1,1.5,1.2,2.2.5.7.7,1.5,1,2.2h.2c1.9.7,3.7,1.5,5.4,2.4,1.7,1,3.4,2,4.9,3.2.7.5,1.7,1,2.4,1.5l1.2.5c.5.2,1,.2,1.5.5,1.7.5,3.7,1,5.6,1.2l-4.2-6.8-5.4-4.4,5.6,3.9,4.9,7.1c1.5.2,3.2.2,4.6,0,3.9,0,7.8-.7,11.5-1.5,3.9-.7,7.6-2,11.2-2.9,1.9-.7,5.1-2,7.6-2.9-4.6.5-9.5.7-14.1.7-11.5,0-22.9-2.4-31.7-10.8-2.7-2.4-4.9-5.1-8.5-6.1-3.2-1-6.8-.7-10-.5-5.6.7-11.2,2.2-16.8,2-8-.2-15.9-3.2-22.4-7.8,5.4,8.5,10.7,17.3,16.8,25.2,4.2,5.1,9.3,9,16.1,9.8,4.9.5,10-.2,14.9.5s8.1,3.2,11.5,6.3c5.6,4.9,11.5,4.6,18.1,1.7,10-4.6,19.3-12,27.6-19.3-2.9,1-6.6,2.4-8.5,2.9-3.7,1.2-7.6,2.2-11.5,2.9h-.5l-9.6,8.2h0Zm76.8,25c-.2-2.2-.2-6.1-.5-9.8-1.2,4.6-2.4,9.5-3.7,14.2-1.7,7.1-3.7,14.4-3.2,21.8.2,3.7,1.2,7.6,3.2,10.8,2.2,3.2,5.4,5.1,7.8,8.1,4.6,5.4,5.9,12.5,8.3,19.1,7.1,19.6,29.3,23.7,44.9,34.9-4.6-8.6-7.3-18.3-7.8-28.4,0-3.4,0-7.1.5-10.5.5-3.9,1.9-8.1,1.7-12-.7-10-11.7-13.7-19.5-16.6-13.9-5.6-22.7-16.4-27.3-30.6-1-3.2-1.9-6.3-2.7-9.5-.2,3.2-.5,6.6-.5,8.6.2,4.9.7,9.8,1.5,14.4v.2c1.9,2.9,4.1,5.9,6.3,8.6,1.2,1.5,2.4,2.9,3.9,4.2,1.5,1.2,2.9,2.7,4.6,3.2-1.7-.7-3.4-2-4.9-3.2s-2.7-2.7-3.9-4.2c-1.9-2.2-3.9-4.4-5.6-6.8.2,1.5.7,3.2,1.2,4.6.7,2.2,1.5,4.6,2.4,6.8s2.2,4.1,3.7,6.1c1.5,1.7,3.4,3.4,5.4,4.4,3.9,1.7,7.3,4.6,9.8,8.1,1.7.7,3.4,2,4.9,3.2s2.7,2.4,3.9,3.7c1.2,1.2,2.2,2.7,3.4,4.1-1-1.5-2.2-2.7-3.4-3.9s-2.4-2.4-3.9-3.4c-1-.7-2.2-1.5-3.4-2.2l.2.2c1.2,2.2,2.4,4.4,2.7,6.8.5,2.4.2,4.9.2,7.3s.2,4.9,1.2,7.1c1,2.2,2.4,4.1,3.9,6.1,3.2,3.7,6.8,6.8,11.2,9.3-4.1-2.4-8.1-5.4-11.2-9-1.5-2-2.9-3.9-3.9-6.1-.2-.7-.7-1.7-.7-2.4-.2.5-.2.7-.5,1.5-.2.7-.2,1.7-.5,2.4v2.4c0,.7.2,1.7.5,2.4-.2-.7-.7-1.7-.7-2.4-.2-1-.2-1.7-.2-2.7s0-1.7.2-2.7c.2-.7.5-2.2.7-2.9-.2-1-.2-2-.2-2.9,0-2.4,0-4.9-.2-7.3s-1.5-4.6-2.7-6.6c-2.7-3.9-6.3-7.3-10.7-9.3-2.2-1-4.1-2.7-5.9-4.6-.7-1-1.5-1.7-1.9-2.7.5,3.9,1,7.8,1.7,11.5.5,2.2,1,4.4,1.7,6.6.7,2.2,1.5,4.4,2.9,6.4-1.5-2-2.2-4.1-3.2-6.1-.7-2.2-1.5-4.4-1.9-6.6-1-4.4-1.7-8.8-2.2-13.4-.2-.5-.7-1.2-1-1.7-1-2.2-1.9-4.6-2.7-6.8-.7-2.4-1.2-4.6-1.7-7.1-1.2-5-1.9-9.9-2.2-14.7h0Zm-46.6,67.2c-3.2,7.6-6.6,15.4-7.1,23.7-.2,3.9.2,8.1,1.7,11.7,1.5,3.9,4.6,6.6,5.9,10.8,1.2,5.1,3.2,8.8,6.3,12.9,2.9,3.9,5.9,7.8,8.5,12,3.4,5.1,6.6,10.5,9.3,15.9,0-.2.2-.7.2-1,1.5-5.6,3.7-11,6.1-16.1,1.2-2.7,2.9-5.4,4.4-8.1,1.9-3.9.7-6.6,0-10.5-.7-4.6,1-8.1,3.4-12,3.7-5.6,5.4-10.8,2.4-17.1-2.7-6.1-8.1-10.3-13.4-13.7-8.5-5.4-16.1-10.5-22.4-17.8,2.4,5.9,4.6,12.5,6.6,18.6.2,1,.5,1.7,1,2.7,2.4,1.5,4.9,2.9,7.3,4.1,1.2.7,2.7,1.2,4.1,2,1.5.5,2.9,1,4.4,1.2-1.5,0-2.9-.5-4.4-1s-2.9-1-4.1-1.7c-2.2-1-4.6-2.2-6.8-3.4.7,2.4,1.5,4.6,1.9,7.1.5,2,.7,3.7,1,5.6,0,.5,0,1-.2,1.5,0,.2-.1.3-.2.5l-.2.2-.2.5c-.5.7-.7,1.7-.7,2.4-.2,1.7-.5,3.7-.5,5.6v2.9c2.9,2.9,5.6,5.9,8.1,9,1.2,1.5,2.4,3.2,3.7,4.9s2.2,3.4,2.9,5.4c-.7-2-1.9-3.4-3.2-5.1s-2.4-3.2-3.9-4.6c-2.4-2.7-5.1-5.4-7.8-7.8,0,.5,0,1,.2,1.2.5,3.7,1.5,7.3,2.2,11s1.7,7.3,2.9,11c.5,1.7,1.2,3.7,1.9,5.4.2,1,.7,1.7,1.2,2.4s.7,1.5,1.2,1.9c-.5-.5-1-1.2-1.5-1.9s-1-1.7-1.2-2.4c-.7-1.7-1.5-3.4-1.9-5.4-1.2-3.7-2.2-7.3-3.2-11-.2-.7-.5-1.7-.5-2.4-.7,1.2-1.5,2.7-2.2,4.1-.2.7-.7,1.7-1,2.4-.2,1-.2,1.7,0,2.7-.5-.7-.2-1.7-.2-2.7.2-1,.5-1.7.7-2.7.5-1.7,1.5-3.7,2.2-5.1-.5-2.4-1.2-4.9-1.5-7.3-.2-2-.5-3.7-.5-5.6s0-3.9.2-5.6c.2-1,.5-2,1-2.9l.7-1v-1.7c0-1.7-.5-3.7-1-5.4-.2-1-.5-1.7-.7-2.7-2.7,2.9-5.1,6.1-7.3,9.3-1.2,1.7-2.2,3.7-3.2,5.6-.5,1-.7,2-1,2.9.2-1,.5-2.2,1-3.2.7-2,1.7-3.9,2.9-5.6,1.2-1.7,2.4-3.7,3.7-5.4s2.4-3.2,3.7-4.6c-.7-2.4-1.5-4.9-2.4-7.1-.5-1.2-.7-2.4-1.2-3.4-1.9-5.4-4.1-10.8-6.3-15.9-.3,3.1-1.5,6.3-3,9.8h0Zm-41.7,79.9c.5-2.4.7-5.1.7-7.6,0-2.7-.2-5.1-.7-7.6-.2-2-1-3.9-1.5-5.9l-4.2,21c-3.7,4.6-7.1,9.3-10.5,13.9-1.7,2.4-3.2,4.9-4.6,7.3-.7,1.2-1.5,2.4-1.9,3.9.5-1.2,1.2-2.7,1.9-3.9,1.5-2.4,2.9-5.1,4.6-7.6,1-1.5,1.9-2.7,2.9-4.1-2.2.7-3.9,1.2-6.1,2.2-1.2.5-2.4,1-3.4,1.5-1.2.5-2.2,1.2-3.2,2,1-1,1.9-1.5,3.2-2.2,1.2-.5,2.2-1.2,3.4-1.7,2.2-1,4.9-2,7.1-2.9,2.2-2.9,4.4-5.9,6.6-8.8l5.6-31c-2.4,2-4.6,3.9-6.8,6.1-1.2,1.2-2.7,2.7-3.9,3.9-1.2,1.5-2.4,2.9-2.9,4.6.5-1.7,1.7-3.2,2.7-4.6,1.2-1.5,2.4-2.9,3.7-4.2,2.4-2.4,4.9-4.9,7.3-7.1l2.9-16.9c-.2.7-.7,1.5-1,1.7-.2.7-.7,1.2-1,2-.7,1-1.2,2-1.9,3.2-.5,1-1.2,1.7-1.7,2.4-1.2,1.5-2.7,2.9-4.4,4.1-3.2,2.4-6.6,4.6-9.8,7.1-1.5,1.2-2.7,2.2-3.9,3.7-1.7,2-3.2,4.1-3.9,6.8-.7,3.4.5,5.9,1.5,8.8,1.2,3.9,1.2,7.1-.7,10.5-2.4,4.4-6.1,7.8-7.3,12.9-1.2,5.1-.5,10.3-.5,15.4,0,4.1-.5,8.5-2.2,12.5,6.8-4.4,13.7-8.6,20.5-13,4.2-2.7,9-5.1,11.9-9.3,3.2-4.4,1.9-9.8,4.2-14.7,1.7-3.7,4.4-6.8,7.1-9.8,1.5-1.7,3.2-3.2,4.2-5.1,1.9-3.4,1-6.1-.2-9.5-3.2-9-6.3-18.1-9.5-27.1l-5.1,23.9c1,2.4,1.5,4.9,1.9,7.3.5,2.7.5,5.1.5,7.8-.4,2.9-.9,5.6-1.6,8.1-.2,2.7-1.2,4.9-2.2,7.3.7-2.4,1.7-4.9,2.2-7.3h0Zm-83.2-31.3c11,2.7,20.7,3.4,31.7,0,9.5-2.9,20-7.6,28.1-13.4,6.6-4.9,8.5-12.9,12.7-19.6-3.7,1.5-7.8,3.2-11.7,4.9-1.9,1-3.9,1.7-6.1,2.7-3.2,3.2-6.3,6.4-9.5,9.5-1.7,1.7-3.2,3.7-4.6,5.4-.7,1-1.5,2-1.9,2.9-.5,1-1.2,2.2-1.2,3.2.2-1.2.7-2.2,1.2-3.4.5-1,1.2-2,1.9-2.9,1.5-2,2.9-3.9,4.4-5.6,2.4-2.9,4.9-5.6,7.6-8.3-.2,0-.3.1-.5.2-3.7,1.7-7.1,3.4-10.7,5.1-1.7,1-3.4,1.7-5.1,2.7-.7.5-1.7,1-2.4,1.5s-1.7,1.2-2.2,1.7l-5.6,2.9c-3.2.2-6.3.5-9.5,1-1.5,1-3.2,2-4.6,2.9-.7.5-1.5,1-2.4,1.7-.5.2-.7.5-1,1,.2-.2.7-.7,1-1,.7-.7,1.5-1.2,2.2-1.7,1.2-1,2.2-1.7,3.4-2.4-1.5.2-2.9.5-4.4.5-2.4.5-5.1.7-7.6,1.5-2.4.5-5.1,1.2-7.3,2.2,2.2-1.2,4.9-2,7.3-2.4,2.4-.5,5.1-1,7.6-1.5,5.1-.7,10.2-1.5,15.4-2l5.4-2.9c.7-1,1.5-1.5,2.2-2,.2-.2.7-.5,1-.7h-4.9c-2.2,0-4.4-.2-6.6-.5-2.2-.2-4.4-.5-6.6-1.2-2.2-.5-4.2-1.2-6.1-2.7,2,1.2,3.9,2,6.1,2.4,2.2.5,4.4.7,6.6,1,2.2.2,4.4.2,6.6.2s4.4-.2,6.3-.5c1.7-1,3.4-2,5.1-2.9,3.4-2,7.1-3.7,10.5-5.4-1.5-.2-2.7-.5-4.2-.7-1.9-.5-3.9-1-5.8-1.5s-3.9-1.2-5.6-2.2-3.7-2-4.9-3.7c1.2,1.5,3.2,2.7,4.9,3.4,1.9.7,3.7,1.5,5.8,2,3.7,1,7.6,1.5,11.5,2,5.4-2.7,11-5.1,16.3-7.6-4.6.7-9.3.5-13.7-.5-6.1-1.2-11.7-3.4-18.1-2.7-22.7,2.2-37.1,23-55.4,35.2,5.7-.2,11.6.5,17.4,2.2h0Z"/>
</svg>